<?xml version="1.0" encoding="UTF-8"?>
<svg width="463" height="239" viewBox="0 0 463 239" fill="none" xmlns="http://www.w3.org/2000/svg">
<path d="M14.4924 2.0077C15.2056 2.00595 15.9187 2.00419 16.6535 2.00239C18.9891 1.99802 21.3246 2.00089 23.6602 2.00428C25.2949 2.00361 26.9296 2.00264 28.5643 2.00138C31.9811 1.99991 35.3979 2.00204 38.8147 2.00672C43.1847 2.01242 47.5547 2.00913 51.9247 2.00315C55.2971 1.99953 58.6694 2.00069 62.0418 2.00328C63.6529 2.00394 65.264 2.00313 66.8751 2.0008C69.1291 1.99825 71.383 2.00215 73.637 2.0077C74.9171 2.0085 76.1973 2.00929 77.5163 2.01011C80.7698 2.1287 83.8076 2.51879 87 3.13709C87.0247 7.1064 87.0428 11.0757 87.0549 15.0451C87.06 16.3963 87.0668 17.7475 87.0754 19.0988C87.0875 21.0373 87.0927 22.9759 87.0977 24.9144C87.1029 26.0822 87.1081 27.2501 87.1135 28.4533C87 31.1371 87 31.1371 86 32.1371C84.3426 32.2306 82.6813 32.2545 81.0212 32.2506C79.9602 32.2505 78.8992 32.2505 77.806 32.2504C76.6519 32.2452 75.4977 32.2401 74.3086 32.2348C73.1336 32.2333 71.9586 32.2319 70.7481 32.2305C66.9778 32.2248 63.2077 32.2123 59.4375 32.1996C56.8887 32.1946 54.3398 32.19 51.791 32.1859C45.5273 32.1749 39.2637 32.1576 33 32.1371C33 39.7271 33 47.3171 33 55.1371C36.0925 55.1255 39.1849 55.1139 42.3711 55.1019C45.3529 55.0941 48.3348 55.0881 51.3167 55.0822C53.3954 55.0771 55.4742 55.0703 57.553 55.0617C60.534 55.0496 63.515 55.0439 66.4961 55.0394C67.8992 55.0317 67.8992 55.0317 69.3307 55.0238C70.1915 55.0237 71.0523 55.0236 71.9392 55.0236C72.7009 55.0213 73.4625 55.0191 74.2473 55.0168C76 55.1371 76 55.1371 77 56.1371C77.0876 58.1367 77.107 60.1395 77.0977 62.141C77.0952 63.2348 77.0927 64.3287 77.0901 65.4557C77.081 66.8562 77.0719 68.2567 77.0625 69.6996C77.0419 74.134 77.0213 78.5683 77 83.1371C62.81 83.4671 48.62 83.7971 34 84.1371C33.67 101.297 33.34 118.457 33 136.137C22.11 136.137 11.22 136.137 0 136.137C0 92.2471 0 48.3571 0 3.13709C5.07203 2.41252 9.43696 2.01084 14.4924 2.0077Z" fill="#C84E00"/>
<path d="M175.063 44.9496C185.65 53.5143 191.671 64.5257 193.793 78.0511C194.22 84.4156 193.762 90.8111 193 97.1371C191.174 98.9636 188.283 98.3098 185.828 98.3424C185.184 98.3523 184.54 98.3622 183.877 98.3724C181.74 98.4041 179.602 98.4288 177.465 98.4535C175.987 98.474 174.508 98.495 173.03 98.5165C169.132 98.5717 165.234 98.6211 161.336 98.6693C157.362 98.7195 153.387 98.7752 149.412 98.8304C141.608 98.9381 133.804 99.0395 126 99.1371C129.166 104.125 132.059 107.938 137.941 109.728C147.471 111.623 158.101 111.06 166.836 106.817C169 106.137 169 106.137 170.919 106.891C173.103 108.199 174.673 109.581 176.453 111.395C177.072 112.02 177.691 112.645 178.328 113.289C178.962 113.94 179.597 114.591 180.25 115.262C180.9 115.921 181.549 116.579 182.219 117.258C183.817 118.88 185.411 120.506 187 122.137C183.948 128.793 177.204 131.922 170.559 134.442C153.788 139.669 136.3 140.266 120.059 132.782C111.443 127.876 104.41 121.438 99.0001 113.137C98.6198 112.557 98.2395 111.977 97.8477 111.379C91.2099 99.8069 90.7164 85.1736 93.9102 72.5355C98.0564 59.6331 105.68 48.497 117.928 42.1356C137.116 32.8666 157.345 31.4628 175.063 44.9496ZM127.031 71.5511C125.818 73.1012 125.818 73.1012 126 75.1371C138.21 75.1371 150.42 75.1371 163 75.1371C162.505 72.1671 162.505 72.1671 162 69.1371C161.34 69.1371 161.68 68.5 161 68.5C161 67.84 160 67.8171 160 67.1371C147.479 59.6779 136.562 59.9416 127.031 71.5511Z" fill="#C84E00"/>
<path d="M267.898 42.4066C273.891 47.3413 278.079 52.9558 281 60.1371C280.505 61.6221 280.505 61.6221 280 63.1371C277.93 64.0443 277.93 64.0443 275.23 64.7777C273.774 65.176 273.774 65.176 272.287 65.5824C271.264 65.848 270.241 66.1135 269.188 66.3871C267.671 66.8086 267.671 66.8086 266.123 67.2387C257.362 69.5781 257.362 69.5781 254 68.1371C253.227 66.6212 253.227 66.6212 252.438 65.0746C250.339 61.8792 250.339 61.8792 247.301 61.7426C244.512 61.7604 241.776 61.8787 239 62.1371C238.67 64.1171 238.34 66.0971 238 68.1371C242.083 70.8431 246.319 72.3733 250.938 73.8871C263.316 78.1296 275.647 82.5725 282.875 94.1371C284.148 97.5327 284.683 100.525 285 104.137C285.103 105.23 285.206 106.323 285.312 107.45C284.517 116.837 279.922 123.928 273 130.137C262.657 137.61 249.587 140.27 237.083 138.434C225.295 136.401 215.574 131.676 208 122.137C205.595 118.291 204.007 114.556 203 110.137C207.6 107.686 212.173 105.94 217.125 104.387C218.179 104.037 218.179 104.037 219.254 103.68C225.907 101.58 225.907 101.58 229 103.137C230.343 105.13 231.676 107.131 233 109.137C236.862 112.545 240.719 112.652 245.68 112.489C248.192 112.266 248.192 112.266 250.688 110.45C252.216 108.22 252.216 108.22 251.933 105.654C251.222 102.926 251.222 102.926 248.583 101.703C247.527 101.325 246.471 100.948 245.383 100.559C244.217 100.119 243.052 99.6798 241.852 99.2269C239.407 98.3479 236.961 97.4703 234.516 96.5941C223.895 92.5853 214.596 87.0436 208.805 76.9613C206.06 70.738 205.904 63.062 207.719 56.5629C211.633 47.2661 218.19 41.3048 227.242 37.0941C240.675 32.2774 256.347 34.1413 267.898 42.4066Z" fill="#C84E00"/>
<path d="M321.559 13.0043C322.521 13.003 323.483 13.0017 324.475 13.0004C325.452 13.0042 326.43 13.0081 327.438 13.0121C328.945 13.0063 328.945 13.0063 330.482 13.0004C331.436 13.0017 332.389 13.0029 333.371 13.0043C334.669 13.006 334.669 13.006 335.994 13.0077C338 13.1371 338 13.1371 339 14.1371C339.087 15.8448 339.107 17.5561 339.098 19.266C339.094 20.3005 339.091 21.3349 339.088 22.4008C339.075 24.0337 339.075 24.0337 339.062 25.6996C339.058 26.7921 339.053 27.8845 339.049 29.0101C339.037 31.7192 339.021 34.4281 339 37.1371C339.99 36.8071 340.98 36.4771 342 36.1371C343.993 36.1154 343.993 36.1154 346.23 36.2582C347.033 36.3065 347.835 36.3549 348.662 36.4047C349.495 36.4607 350.329 36.5168 351.188 36.5746C352.032 36.6268 352.877 36.679 353.748 36.7328C355.832 36.8623 357.916 36.999 360 37.1371C360.842 41.5226 361.135 45.6735 361.125 50.1371C361.129 51.9005 361.129 51.9005 361.133 53.6996C361 57.1371 361 57.1371 360 63.1371C353.07 63.1371 346.14 63.1371 339 63.1371C339.097 68.5818 339.2 74.0258 339.317 79.4701C339.356 81.3206 339.39 83.1712 339.422 85.0219C339.468 87.6881 339.526 90.3539 339.586 93.0199C339.597 93.842 339.609 94.6641 339.621 95.5111C339.737 100.057 340.135 103.907 342 108.137C345.21 109.742 348.633 108.962 352.125 108.7C356.023 108.421 356.023 108.421 360 108.137C360 116.717 360 125.297 360 134.137C349.166 138.471 334.833 139.197 323.625 135.575C315.952 132.128 312.762 126.442 309.762 118.86C307.814 111.898 307.811 104.689 307.684 97.5121C307.663 96.5246 307.642 95.5371 307.621 94.5197C307.556 91.3922 307.497 88.2647 307.438 85.1371C307.394 83.0056 307.351 80.8741 307.307 78.7426C307.2 73.5408 307.099 68.339 307 63.1371C302.71 63.1371 298.42 63.1371 294 63.1371C294 54.5571 294 45.9771 294 37.1371C298.29 37.1371 302.58 37.1371 307 37.1371C307.33 29.5471 307.66 21.9571 308 14.1371C317.016 13.0101 317.016 13.0101 321.559 13.0043Z" fill="#C84E00"/>
<path d="M440.849 4.10294C442.058 4.55267 443.267 5.00239 444.513 5.46575C445.774 5.94119 447.034 6.41675 448.295 6.89243C449.579 7.37214 450.864 7.85134 452.148 8.33C455.278 9.49875 458.407 10.6727 461.533 11.8515C459.536 22.0486 456.165 31.8047 452.89 41.6436C452.45 42.9739 452.45 42.9739 452.001 44.3312C446.215 61.8053 440.005 79.095 433.652 96.3717C422.684 92.7535 411.715 89.1352 400.414 85.4073C409.615 57.5157 418.815 29.624 428.295 0.887155C433.007 1.61617 436.472 2.46341 440.849 4.10294Z" fill="#C84E00"/>
<path d="M420.928 104.021C424.521 108.51 426.238 112.415 426.447 118.214C425.771 122.662 424.723 126.34 421.442 129.532C417.524 132.349 413.375 134.892 408.435 135.109C401.683 133.904 397.408 131.656 393.268 126.223C390.592 121.263 389.83 117.093 391.424 111.663C393.257 106.366 396.127 103.419 401.093 100.892C408.335 97.8388 414.872 99.1289 420.928 104.021Z" fill="#C84E00"/>
<path d="M171.547 219V159.814H193.859C204.975 159.814 212.85 167.484 212.85 178.723V178.805C212.85 190.043 204.975 197.877 193.859 197.877H178.93V219H171.547ZM191.973 166.377H178.93V191.314H191.973C200.422 191.314 205.303 186.68 205.303 178.887V178.805C205.303 171.012 200.422 166.377 191.973 166.377ZM224.047 219V174.785H231.184V181.348H231.84C233.521 176.713 237.664 174.006 243.652 174.006C245.006 174.006 246.523 174.17 247.221 174.293V181.225C245.744 180.979 244.391 180.814 242.832 180.814C236.023 180.814 231.184 185.121 231.184 191.602V219H224.047ZM272.979 219.779C260.387 219.779 252.594 211.084 252.594 196.934V196.852C252.594 182.66 260.387 174.006 272.979 174.006C285.57 174.006 293.363 182.66 293.363 196.852V196.934C293.363 211.084 285.57 219.779 272.979 219.779ZM272.979 213.463C281.346 213.463 286.062 207.352 286.062 196.934V196.852C286.062 186.393 281.346 180.322 272.979 180.322C264.611 180.322 259.895 186.393 259.895 196.852V196.934C259.895 207.352 264.611 213.463 272.979 213.463Z" fill="#C84E00"/>
</svg>